<?xml version="1.0" encoding="UTF-8"?>
<svg version="1.1" xmlns="http://www.w3.org/2000/svg" width="3048" height="2048">
<path d="M0 0 C1005.84 0 2011.68 0 3048 0 C3048 675.84 3048 1351.68 3048 2048 C2042.16 2048 1036.32 2048 0 2048 C0 1372.16 0 696.32 0 0 Z " fill="#82B6FF" transform="translate(0,0)"/>
<path d="M0 0 C126.72 0 253.44 0 384 0 C384 21.12 384 42.24 384 64 C447.36 64 510.72 64 576 64 C576 85.12 576 106.24 576 128 C639.36 128 702.72 128 768 128 C768 149.12 768 170.24 768 192 C810.24 192 852.48 192 896 192 C896 213.12 896 234.24 896 256 C917.12 256 938.24 256 960 256 C960 277.12 960 298.24 960 320 C981.12 320 1002.24 320 1024 320 C1024 341.12 1024 362.24 1024 384 C1045.12 384 1066.24 384 1088 384 C1088 426.24 1088 468.48 1088 512 C1109.12 512 1130.24 512 1152 512 C1152 554.24 1152 596.48 1152 640 C1173.12 640 1194.24 640 1216 640 C1216 724.48 1216 808.96 1216 896 C1194.88 896 1173.76 896 1152 896 C1152 959.36 1152 1022.72 1152 1088 C1130.88 1088 1109.76 1088 1088 1088 C1088 1130.24 1088 1172.48 1088 1216 C1066.88 1216 1045.76 1216 1024 1216 C1024 1237.12 1024 1258.24 1024 1280 C1002.88 1280 981.76 1280 960 1280 C960 1301.12 960 1322.24 960 1344 C453.12 1344 -53.76 1344 -576 1344 C-576 1322.88 -576 1301.76 -576 1280 C-597.12 1280 -618.24 1280 -640 1280 C-640 1258.88 -640 1237.76 -640 1216 C-661.12 1216 -682.24 1216 -704 1216 C-704 1173.76 -704 1131.52 -704 1088 C-725.12 1088 -746.24 1088 -768 1088 C-768 1024.64 -768 961.28 -768 896 C-789.12 896 -810.24 896 -832 896 C-832 811.52 -832 727.04 -832 640 C-810.88 640 -789.76 640 -768 640 C-768 597.76 -768 555.52 -768 512 C-746.88 512 -725.76 512 -704 512 C-704 469.76 -704 427.52 -704 384 C-682.88 384 -661.76 384 -640 384 C-640 362.88 -640 341.76 -640 320 C-618.88 320 -597.76 320 -576 320 C-576 298.88 -576 277.76 -576 256 C-554.88 256 -533.76 256 -512 256 C-512 234.88 -512 213.76 -512 192 C-469.76 192 -427.52 192 -384 192 C-384 170.88 -384 149.76 -384 128 C-320.64 128 -257.28 128 -192 128 C-192 106.88 -192 85.76 -192 64 C-128.64 64 -65.28 64 0 64 C0 42.88 0 21.76 0 0 Z " fill="#37946E" transform="translate(1332,338)"/>
<path d="M0 0 C21.12 0 42.24 0 64 0 C64 21.12 64 42.24 64 64 C85.12 64 106.24 64 128 64 C128 106.24 128 148.48 128 192 C149.12 192 170.24 192 192 192 C192 234.24 192 276.48 192 320 C213.12 320 234.24 320 256 320 C256 404.48 256 488.96 256 576 C234.88 576 213.76 576 192 576 C192 639.36 192 702.72 192 768 C170.88 768 149.76 768 128 768 C128 810.24 128 852.48 128 896 C106.88 896 85.76 896 64 896 C64 917.12 64 938.24 64 960 C42.88 960 21.76 960 0 960 C0 981.12 0 1002.24 0 1024 C-506.88 1024 -1013.76 1024 -1536 1024 C-1536 1002.88 -1536 981.76 -1536 960 C-1324.8 960 -1113.6 960 -896 960 C-896 938.88 -896 917.76 -896 896 C-769.28 896 -642.56 896 -512 896 C-512 874.88 -512 853.76 -512 832 C-469.76 832 -427.52 832 -384 832 C-384 810.88 -384 789.76 -384 768 C-341.76 768 -299.52 768 -256 768 C-256 746.88 -256 725.76 -256 704 C-234.88 704 -213.76 704 -192 704 C-192 682.88 -192 661.76 -192 640 C-170.88 640 -149.76 640 -128 640 C-128 618.88 -128 597.76 -128 576 C-106.88 576 -85.76 576 -64 576 C-64 533.76 -64 491.52 -64 448 C-42.88 448 -21.76 448 0 448 C0 300.16 0 152.32 0 0 Z " fill="#1F5E44" transform="translate(2292,658)"/>
<path d="M0 0 C126.72 0 253.44 0 384 0 C384 21.12 384 42.24 384 64 C341.76 64 299.52 64 256 64 C256 85.12 256 106.24 256 128 C192.64 128 129.28 128 64 128 C64 149.12 64 170.24 64 192 C42.88 192 21.76 192 0 192 C0 213.12 0 234.24 0 256 C-42.24 256 -84.48 256 -128 256 C-128 298.24 -128 340.48 -128 384 C-149.12 384 -170.24 384 -192 384 C-192 426.24 -192 468.48 -192 512 C-234.24 512 -276.48 512 -320 512 C-320 448.64 -320 385.28 -320 320 C-298.88 320 -277.76 320 -256 320 C-256 298.88 -256 277.76 -256 256 C-234.88 256 -213.76 256 -192 256 C-192 234.88 -192 213.76 -192 192 C-170.88 192 -149.76 192 -128 192 C-128 149.76 -128 107.52 -128 64 C-85.76 64 -43.52 64 0 64 C0 42.88 0 21.76 0 0 Z " fill="#6BAE93" transform="translate(1076,530)"/>
<path d="M0 0 C506.88 0 1013.76 0 1536 0 C1536 21.12 1536 42.24 1536 64 C1029.12 64 522.24 64 0 64 C0 42.88 0 21.76 0 0 Z " fill="#000000" transform="translate(756,1618)"/>
<path d="M0 0 C63.36 0 126.72 0 192 0 C192 21.12 192 42.24 192 64 C170.88 64 149.76 64 128 64 C128 85.12 128 106.24 128 128 C85.76 128 43.52 128 0 128 C0 170.24 0 212.48 0 256 C-21.12 256 -42.24 256 -64 256 C-64 277.12 -64 298.24 -64 320 C-85.12 320 -106.24 320 -128 320 C-128 341.12 -128 362.24 -128 384 C-191.36 384 -254.72 384 -320 384 C-320 341.76 -320 299.52 -320 256 C-298.88 256 -277.76 256 -256 256 C-256 234.88 -256 213.76 -256 192 C-234.88 192 -213.76 192 -192 192 C-192 170.88 -192 149.76 -192 128 C-170.88 128 -149.76 128 -128 128 C-128 106.88 -128 85.76 -128 64 C-85.76 64 -43.52 64 0 64 C0 42.88 0 21.76 0 0 Z " fill="#37946E" transform="translate(948,466)"/>
<path d="M0 0 C105.6 0 211.2 0 320 0 C320 63.36 320 126.72 320 192 C298.88 192 277.76 192 256 192 C256 213.12 256 234.24 256 256 C213.76 256 171.52 256 128 256 C128 234.88 128 213.76 128 192 C106.88 192 85.76 192 64 192 C64 170.88 64 149.76 64 128 C42.88 128 21.76 128 0 128 C0 85.76 0 43.52 0 0 Z " fill="#222034" transform="translate(1140,1170)"/>
<path d="M0 0 C42.24 0 84.48 0 128 0 C128 21.12 128 42.24 128 64 C106.88 64 85.76 64 64 64 C64 106.24 64 148.48 64 192 C42.88 192 21.76 192 0 192 C0 234.24 0 276.48 0 320 C-42.24 320 -84.48 320 -128 320 C-128 256.64 -128 193.28 -128 128 C-106.88 128 -85.76 128 -64 128 C-64 106.88 -64 85.76 -64 64 C-42.88 64 -21.76 64 0 64 C0 42.88 0 21.76 0 0 Z " fill="#6BAE93" transform="translate(884,722)"/>
<path d="M0 0 C42.24 0 84.48 0 128 0 C128 63.36 128 126.72 128 192 C149.12 192 170.24 192 192 192 C192 213.12 192 234.24 192 256 C170.88 256 149.76 256 128 256 C128 298.24 128 340.48 128 384 C106.88 384 85.76 384 64 384 C64 320.64 64 257.28 64 192 C42.88 192 21.76 192 0 192 C0 128.64 0 65.28 0 0 Z " fill="#6BAE93" transform="translate(628,850)"/>
<path d="M0 0 C105.6 0 211.2 0 320 0 C320 63.36 320 126.72 320 192 C298.88 192 277.76 192 256 192 C256 149.76 256 107.52 256 64 C192.64 64 129.28 64 64 64 C64 85.12 64 106.24 64 128 C42.88 128 21.76 128 0 128 C0 85.76 0 43.52 0 0 Z " fill="#000000" transform="translate(1140,1170)"/>
<path d="M0 0 C42.24 0 84.48 0 128 0 C128 63.36 128 126.72 128 192 C85.76 192 43.52 192 0 192 C0 128.64 0 65.28 0 0 Z " fill="#FFFFFF" transform="translate(1524,786)"/>
<path d="M0 0 C42.24 0 84.48 0 128 0 C128 63.36 128 126.72 128 192 C85.76 192 43.52 192 0 192 C0 128.64 0 65.28 0 0 Z " fill="#FFFFFF" transform="translate(1076,786)"/>
<path d="M0 0 C126.72 0 253.44 0 384 0 C384 21.12 384 42.24 384 64 C257.28 64 130.56 64 0 64 C0 42.88 0 21.76 0 0 Z " fill="#000000" transform="translate(1332,338)"/>
<path d="M0 0 C21.12 0 42.24 0 64 0 C64 84.48 64 168.96 64 256 C42.88 256 21.76 256 0 256 C0 171.52 0 87.04 0 0 Z " fill="#000000" transform="translate(2484,978)"/>
<path d="M0 0 C21.12 0 42.24 0 64 0 C64 84.48 64 168.96 64 256 C42.88 256 21.76 256 0 256 C0 171.52 0 87.04 0 0 Z " fill="#000000" transform="translate(500,978)"/>
<path d="M0 0 C21.12 0 42.24 0 64 0 C64 63.36 64 126.72 64 192 C42.88 192 21.76 192 0 192 C0 128.64 0 65.28 0 0 Z " fill="#000000" transform="translate(2420,1234)"/>
<path d="M0 0 C21.12 0 42.24 0 64 0 C64 63.36 64 126.72 64 192 C42.88 192 21.76 192 0 192 C0 128.64 0 65.28 0 0 Z " fill="#000000" transform="translate(564,1234)"/>
<path d="M0 0 C21.12 0 42.24 0 64 0 C64 63.36 64 126.72 64 192 C42.88 192 21.76 192 0 192 C0 128.64 0 65.28 0 0 Z " fill="#FFFFFF" transform="translate(756,850)"/>
<path d="M0 0 C21.12 0 42.24 0 64 0 C64 63.36 64 126.72 64 192 C42.88 192 21.76 192 0 192 C0 128.64 0 65.28 0 0 Z " fill="#000000" transform="translate(1652,786)"/>
<path d="M0 0 C21.12 0 42.24 0 64 0 C64 63.36 64 126.72 64 192 C42.88 192 21.76 192 0 192 C0 128.64 0 65.28 0 0 Z " fill="#000000" transform="translate(1460,786)"/>
<path d="M0 0 C21.12 0 42.24 0 64 0 C64 63.36 64 126.72 64 192 C42.88 192 21.76 192 0 192 C0 128.64 0 65.28 0 0 Z " fill="#000000" transform="translate(1204,786)"/>
<path d="M0 0 C21.12 0 42.24 0 64 0 C64 63.36 64 126.72 64 192 C42.88 192 21.76 192 0 192 C0 128.64 0 65.28 0 0 Z " fill="#000000" transform="translate(1012,786)"/>
<path d="M0 0 C63.36 0 126.72 0 192 0 C192 21.12 192 42.24 192 64 C128.64 64 65.28 64 0 64 C0 42.88 0 21.76 0 0 Z " fill="#000000" transform="translate(1908,466)"/>
<path d="M0 0 C63.36 0 126.72 0 192 0 C192 21.12 192 42.24 192 64 C128.64 64 65.28 64 0 64 C0 42.88 0 21.76 0 0 Z " fill="#000000" transform="translate(948,466)"/>
<path d="M0 0 C63.36 0 126.72 0 192 0 C192 21.12 192 42.24 192 64 C128.64 64 65.28 64 0 64 C0 42.88 0 21.76 0 0 Z " fill="#000000" transform="translate(1716,402)"/>
<path d="M0 0 C63.36 0 126.72 0 192 0 C192 21.12 192 42.24 192 64 C128.64 64 65.28 64 0 64 C0 42.88 0 21.76 0 0 Z " fill="#000000" transform="translate(1140,402)"/>
<path d="M0 0 C21.12 0 42.24 0 64 0 C64 42.24 64 84.48 64 128 C42.88 128 21.76 128 0 128 C0 85.76 0 43.52 0 0 Z " fill="#000000" transform="translate(2356,1426)"/>
<path d="M0 0 C21.12 0 42.24 0 64 0 C64 42.24 64 84.48 64 128 C42.88 128 21.76 128 0 128 C0 85.76 0 43.52 0 0 Z " fill="#000000" transform="translate(628,1426)"/>
<path d="M0 0 C42.24 0 84.48 0 128 0 C128 21.12 128 42.24 128 64 C85.76 64 43.52 64 0 64 C0 42.88 0 21.76 0 0 Z " fill="#000000" transform="translate(1268,1362)"/>
<path d="M0 0 C42.24 0 84.48 0 128 0 C128 21.12 128 42.24 128 64 C85.76 64 43.52 64 0 64 C0 42.88 0 21.76 0 0 Z " fill="#AC3232" transform="translate(1268,1298)"/>
<path d="M0 0 C42.24 0 84.48 0 128 0 C128 21.12 128 42.24 128 64 C85.76 64 43.52 64 0 64 C0 42.88 0 21.76 0 0 Z " fill="#000000" transform="translate(1524,978)"/>
<path d="M0 0 C42.24 0 84.48 0 128 0 C128 21.12 128 42.24 128 64 C85.76 64 43.52 64 0 64 C0 42.88 0 21.76 0 0 Z " fill="#000000" transform="translate(1076,978)"/>
<path d="M0 0 C21.12 0 42.24 0 64 0 C64 42.24 64 84.48 64 128 C42.88 128 21.76 128 0 128 C0 85.76 0 43.52 0 0 Z " fill="#000000" transform="translate(2420,850)"/>
<path d="M0 0 C21.12 0 42.24 0 64 0 C64 42.24 64 84.48 64 128 C42.88 128 21.76 128 0 128 C0 85.76 0 43.52 0 0 Z " fill="#000000" transform="translate(564,850)"/>
<path d="M0 0 C21.12 0 42.24 0 64 0 C64 42.24 64 84.48 64 128 C42.88 128 21.76 128 0 128 C0 85.76 0 43.52 0 0 Z " fill="#000000" transform="translate(2356,722)"/>
<path d="M0 0 C42.24 0 84.48 0 128 0 C128 21.12 128 42.24 128 64 C85.76 64 43.52 64 0 64 C0 42.88 0 21.76 0 0 Z " fill="#000000" transform="translate(1524,722)"/>
<path d="M0 0 C42.24 0 84.48 0 128 0 C128 21.12 128 42.24 128 64 C85.76 64 43.52 64 0 64 C0 42.88 0 21.76 0 0 Z " fill="#000000" transform="translate(1076,722)"/>
<path d="M0 0 C42.24 0 84.48 0 128 0 C128 21.12 128 42.24 128 64 C85.76 64 43.52 64 0 64 C0 42.88 0 21.76 0 0 Z " fill="#6BAE93" transform="translate(884,722)"/>
<path d="M0 0 C21.12 0 42.24 0 64 0 C64 42.24 64 84.48 64 128 C42.88 128 21.76 128 0 128 C0 85.76 0 43.52 0 0 Z " fill="#000000" transform="translate(628,722)"/>
<path d="M0 0 C42.24 0 84.48 0 128 0 C128 21.12 128 42.24 128 64 C85.76 64 43.52 64 0 64 C0 42.88 0 21.76 0 0 Z " fill="#000000" transform="translate(2100,530)"/>
<path d="M0 0 C42.24 0 84.48 0 128 0 C128 21.12 128 42.24 128 64 C85.76 64 43.52 64 0 64 C0 42.88 0 21.76 0 0 Z " fill="#37946E" transform="translate(948,530)"/>
<path d="M0 0 C42.24 0 84.48 0 128 0 C128 21.12 128 42.24 128 64 C85.76 64 43.52 64 0 64 C0 42.88 0 21.76 0 0 Z " fill="#000000" transform="translate(820,530)"/>
<path d="M0 0 C21.12 0 42.24 0 64 0 C64 21.12 64 42.24 64 64 C42.88 64 21.76 64 0 64 C0 42.88 0 21.76 0 0 Z " fill="#000000" transform="translate(2292,1554)"/>
<path d="M0 0 C21.12 0 42.24 0 64 0 C64 21.12 64 42.24 64 64 C42.88 64 21.76 64 0 64 C0 42.88 0 21.76 0 0 Z " fill="#000000" transform="translate(692,1554)"/>
<path d="M0 0 C21.12 0 42.24 0 64 0 C64 21.12 64 42.24 64 64 C42.88 64 21.76 64 0 64 C0 42.88 0 21.76 0 0 Z " fill="#000000" transform="translate(1204,1298)"/>
<path d="M0 0 C21.12 0 42.24 0 64 0 C64 21.12 64 42.24 64 64 C42.88 64 21.76 64 0 64 C0 42.88 0 21.76 0 0 Z " fill="#37946E" transform="translate(628,850)"/>
<path d="M0 0 C21.12 0 42.24 0 64 0 C64 21.12 64 42.24 64 64 C42.88 64 21.76 64 0 64 C0 42.88 0 21.76 0 0 Z " fill="#FFFFFF" transform="translate(820,786)"/>
<path d="M0 0 C21.12 0 42.24 0 64 0 C64 21.12 64 42.24 64 64 C42.88 64 21.76 64 0 64 C0 42.88 0 21.76 0 0 Z " fill="#6BAE93" transform="translate(756,786)"/>
<path d="M0 0 C21.12 0 42.24 0 64 0 C64 21.12 64 42.24 64 64 C42.88 64 21.76 64 0 64 C0 42.88 0 21.76 0 0 Z " fill="#37946E" transform="translate(1012,722)"/>
<path d="M0 0 C21.12 0 42.24 0 64 0 C64 21.12 64 42.24 64 64 C42.88 64 21.76 64 0 64 C0 42.88 0 21.76 0 0 Z " fill="#FFFFFF" transform="translate(884,722)"/>
<path d="M0 0 C21.12 0 42.24 0 64 0 C64 21.12 64 42.24 64 64 C42.88 64 21.76 64 0 64 C0 42.88 0 21.76 0 0 Z " fill="#6BAE93" transform="translate(820,722)"/>
<path d="M0 0 C21.12 0 42.24 0 64 0 C64 21.12 64 42.24 64 64 C42.88 64 21.76 64 0 64 C0 42.88 0 21.76 0 0 Z " fill="#000000" transform="translate(2292,658)"/>
<path d="M0 0 C21.12 0 42.24 0 64 0 C64 21.12 64 42.24 64 64 C42.88 64 21.76 64 0 64 C0 42.88 0 21.76 0 0 Z " fill="#FFFFFF" transform="translate(948,658)"/>
<path d="M0 0 C21.12 0 42.24 0 64 0 C64 21.12 64 42.24 64 64 C42.88 64 21.76 64 0 64 C0 42.88 0 21.76 0 0 Z " fill="#6BAE93" transform="translate(884,658)"/>
<path d="M0 0 C21.12 0 42.24 0 64 0 C64 21.12 64 42.24 64 64 C42.88 64 21.76 64 0 64 C0 42.88 0 21.76 0 0 Z " fill="#000000" transform="translate(692,658)"/>
<path d="M0 0 C21.12 0 42.24 0 64 0 C64 21.12 64 42.24 64 64 C42.88 64 21.76 64 0 64 C0 42.88 0 21.76 0 0 Z " fill="#000000" transform="translate(2228,594)"/>
<path d="M0 0 C21.12 0 42.24 0 64 0 C64 21.12 64 42.24 64 64 C42.88 64 21.76 64 0 64 C0 42.88 0 21.76 0 0 Z " fill="#000000" transform="translate(756,594)"/>
</svg>
